<?xml version="1.0" encoding="UTF-8"?>
<!DOCTYPE svg PUBLIC "-//W3C//DTD SVG 1.0//EN" "http://www.w3.org/TR/2001/REC-SVG-20010904/DTD/svg10.dtd">
<!-- Creator: CorelDRAW 2021.5 -->
<svg xmlns="http://www.w3.org/2000/svg" xml:space="preserve" width="75px" height="82px" version="1.0" shape-rendering="geometricPrecision" text-rendering="geometricPrecision" image-rendering="optimizeQuality" fill-rule="evenodd" clip-rule="evenodd"
viewBox="0 0 75 82"
 xmlns:xlink="http://www.w3.org/1999/xlink"
 xmlns:xodm="http://www.corel.com/coreldraw/odm/2003">
 <g id="Layer_x0020_1">
  <metadata id="CorelCorpID_0Corel-Layer"/>
  <g id="_1818247529856">
   <g>
    <path fill="#FFED00" d="M37.67 14.81l0 0zm6.87 32.94c0.86,2.22 0.86,4.11 -0.5,6.17 -2.6,3.96 -7.65,5.42 -12.43,6.01 3.46,2.22 8.6,3.71 11.01,-0.46 0.45,-0.77 1.49,-1 2.2,-0.44 1.64,1.28 3.03,2.65 3.5,4.08 0.11,0.33 0.17,0.65 0.2,0.96l0.36 -0.27 1.55 -1.45 1.56 -1.44 1.55 -1.45 1.55 -1.44 1.56 -1.44 1.55 -1.45 1.55 -1.44 1.56 -1.45 1.55 -1.44 1.55 -1.44 1.56 -1.45 1.55 -1.44 1.55 -1.45c0.52,-0.48 1.04,-0.96 1.55,-1.44 4.29,-3.99 1.91,-4.03 -2.17,-7.88 -0.88,-0.84 -1.76,-1.67 -2.64,-2.5 -0.88,-0.83 -1.76,-1.67 -2.64,-2.5l-2.64 -2.5 -2.64 -2.49 -2.64 -2.5 -2.64 -2.5 -2.64 -2.5 -2.64 -2.49 -2.64 -2.5 -2.64 -2.5 -2.64 -2.5 -2.64 -2.5c-4.14,-3.92 -4.31,-5.86 -9.08,-1.57 -0.63,0.57 -1.26,1.14 -1.9,1.71l-1.9 1.71 -1.9 1.71 -1.9 1.71 -1.9 1.71 -1.9 1.71 -1.9 1.71 -1.91 1.72 -1.9 1.71 -1.9 1.71 -1.9 1.71 -1.9 1.71 -1.9 1.71 -1.83 1.65 19.1 0c-1.95,-1.48 -3.15,-3.09 -3.48,-5.29 -0.34,-3.09 0.91,-5.29 3.2,-7.04 4.58,-3.5 13.5,-4.56 17.7,-0.9 0.98,0.77 1.71,2.12 1.97,3.37l0 0c0.22,1.11 -0.85,2.06 -1.93,1.68 -2.44,-0.85 -5.03,-1.47 -7.57,-0.97 -3.39,0.66 -6.77,3.06 -4.86,6.01 0.74,1.13 2.19,2.22 4.46,3.08l14.38 0.01c1.66,-0.05 1.61,1.69 1.93,3.19 0.21,0.96 -0.51,1.81 -1.44,1.81l-7.07 0c-0.78,6.27 -20.55,5.23 -19.96,8.77l0.99 1.01c5.29,-2.81 11.15,-4.1 16.32,-2.96 4.54,0.99 8.04,3.76 9.65,7.94z"/>
    <path fill="#E31E24" d="M29.86 17.44c2.78,-0.54 5.56,0.06 8.33,1.03 -0.71,-3.69 -5.56,-4.94 -10.3,-4.31 -4.58,0.62 -10.52,3.44 -9.63,8.6 0.48,2.8 3.43,4.95 7.74,6.75l-4.64 0 -20.39 0 0.02 0.06 0.55 1.93 20.28 0 2.9 0 4.49 0c0.26,0.64 -0.71,1.13 -1.95,1.5 -0.71,0.2 -1.51,0.37 -2.21,0.5 -0.79,0.14 -1.46,0.23 -1.74,0.28 -7.99,1.45 -14.11,2.92 -12.2,6.11 0.9,1.68 2.09,3.1 3.58,4.27 1.05,0.82 2.23,1.52 3.57,2.09 0.05,0.02 0.11,0.05 0.17,0.07 1.61,0.67 3.99,1.31 5.65,0.35 2.34,-1.35 4.9,-2.2 7.68,-2.6 1.31,-0.19 2.67,-0.28 4.08,-0.27 2.55,0.04 4.62,1.89 4.19,4.4 -0.19,1.15 -0.91,2.43 -2.33,3.75 -0.69,0.48 -1.42,0.93 -2.2,1.34 -2.77,1.45 -6.09,2.35 -10.37,2.26 -4.03,-3.92 -7.88,-7.02 -11.11,-7.21 -4.64,0.01 -7.05,2.08 -5.32,5.26 0.63,1.15 1.43,2.08 2.62,2.73 3.46,1.9 8.27,2.47 13.87,2.27 0.11,-0.01 0.23,-0.01 0.35,-0.02 5.66,6.73 12.92,10.57 19.22,7.93 0.21,-0.09 0.41,-0.18 0.59,-0.27 3.21,-1.66 1.28,-3.91 -1.44,-6.05 -3.44,5.81 -11.09,3.4 -16.12,-1.43 6.99,-0.33 12.5,-1.81 15.02,-5.65 1.1,-1.67 1.04,-3.07 0.36,-4.83 -3.06,-7.91 -13.65,-9.92 -24.47,-3.91 -2.9,-0.78 -3.55,-3.52 -1.08,-5.11 3.41,-2.19 17.81,-2.41 18.46,-6.43l-6.05 -1.32 14.58 0 -0.4 -2.05 -14.73 -0.01c-9.14,-3.3 -7.49,-10.47 0.38,-12.01zm-15.35 34.4c2.85,-0.62 5.47,1.02 8.11,3.5 -2.47,0.13 -5.5,0.31 -8.33,-0.24 -2.93,-0.58 -3.88,-2.39 0.22,-3.26z"/>
    <path fill="#2B2A29" d="M53.62 19.64l-2.64 -2.49 -2.64 -2.5 -2.64 -2.5 -2.64 -2.5 -2.64 -2.49 -2.64 -2.5c-1.05,-1 -1.88,-1.9 -2.61,-2.64 -1.11,-1.1 -1.98,-1.82 -2.94,-1.98 -1.26,-0.19 -2.75,0.57 -5.21,2.73 -0.1,0.1 -0.21,0.19 -0.31,0.28l-1.9 1.71 -1.9 1.72 -1.91 1.71 -1.9 1.71 -1.9 1.71 -1.9 1.71 -1.9 1.71 -1.9 1.71 -1.9 1.71 -1.9 1.71 -1.91 1.71 -1.9 1.71 -1.9 1.71 -1.9 1.72c-0.22,0.19 -0.37,0.45 -0.44,0.73 -0.03,0.11 -0.04,0.24 -0.04,0.36 0,0.22 0.04,0.42 0.13,0.61 -0.22,0.34 -0.3,0.78 -0.19,1.2 0.42,1.46 0.56,3.07 1.99,3.06l0.52 -0.01 21.71 -0.31 0.62 -0.01c-0.19,0.01 -0.38,0.02 -0.57,0.03l-0.02 0c-4.96,0.33 -9.21,1.46 -10.87,2.15 -3.26,1.35 -4.67,3.15 -3.09,5.81 1.02,1.8 2.32,3.36 3.85,4.61 1.22,0.96 2.85,1.95 4.58,2.61 0.37,0.13 0.74,0.26 1.11,0.37 1.28,0.36 2.71,0.56 4.04,0.26 0.49,-0.11 0.96,-0.28 1.4,-0.54 1.88,-1.09 3.93,-1.81 6.05,-2.23 1.62,-0.32 3.28,-0.46 4.95,-0.44 0.67,0.01 1.29,0.19 1.78,0.51 0.76,0.5 1.03,1.16 1,1.86 -0.01,0.33 -0.09,0.67 -0.22,1 -0.18,0.47 -0.46,0.93 -0.78,1.33 -0.25,0.31 -0.52,0.58 -0.79,0.8l-2 1.22c-1.27,0.66 -2.67,1.21 -4.26,1.57 -1.45,0.34 -3.04,0.52 -4.82,0.53 -0.11,-0.04 -0.71,-0.66 -1.63,-1.52 -1.47,-1.36 -3.76,-3.32 -6.21,-4.56 -1.25,-0.63 -2.54,-1.07 -3.79,-1.14 -1.78,-0.11 -3.93,0.44 -5.02,1.04 -0.34,0.18 -0.64,0.39 -0.91,0.61 -1.7,1.4 -1.82,3.43 -1,5.31 0.32,0.73 0.78,1.45 1.35,2.1 0.07,0.07 0.14,0.15 0.21,0.23 1.21,1.28 2.98,2.17 5,2.78 2.65,0.79 5.71,1.09 8.4,1.15 0.98,0.03 1.91,0.02 2.75,-0.01 0.02,0.02 0.04,0.04 0.05,0.06 3.22,3.67 7.5,7.02 12.1,8.22 2.83,0.72 5.81,0.63 8.77,-0.7l0.09 -0.02c0.23,-0.03 0.46,-0.12 0.66,-0.27l3.16 -2.35c0.06,-0.05 0.12,-0.09 0.18,-0.14l1.55 -1.45 1.55 -1.44 1.55 -1.45 1.56 -1.44 1.55 -1.45 1.55 -1.44 1.56 -1.44 1.55 -1.45 1.55 -1.44 1.56 -1.45 1.55 -1.44 1.55 -1.44 1.55 -1.45 1.56 -1.44c0.07,-0.07 0.15,-0.14 0.22,-0.21 2.13,-2.03 2.83,-3.39 2.61,-4.55 -0.13,-0.63 -0.53,-1.23 -1.15,-1.89 -0.08,-0.09 -0.17,-0.18 -0.26,-0.27 -0.21,-0.2 -0.44,-0.4 -0.69,-0.61 -0.22,-0.2 -0.47,-0.4 -0.73,-0.62 -0.53,-0.43 -1.14,-0.93 -1.76,-1.5l-0.06 -0.06 -0.36 -0.33 -2.63 -2.49 -2.64 -2.5 -2.64 -2.49 -2.64 -2.5 -2.64 -2.5 -2.64 -2.5zm-52.47 8.4l1.83 -1.65 1.9 -1.71 1.9 -1.71 1.9 -1.71 1.9 -1.71 1.9 -1.71 1.91 -1.72 1.9 -1.71 1.9 -1.71 1.9 -1.71 1.9 -1.71 1.9 -1.71 1.9 -1.71c0.64,-0.57 1.27,-1.14 1.9,-1.71 4.77,-4.29 4.94,-2.35 9.08,1.57l2.64 2.5 2.64 2.5 2.64 2.5 2.64 2.5 2.64 2.49 2.64 2.5 2.64 2.5 2.64 2.5 2.64 2.49 2.64 2.5c0.88,0.83 1.76,1.67 2.64,2.5 0.88,0.83 1.76,1.66 2.64,2.5 4.08,3.85 6.46,3.89 2.17,7.88 -0.51,0.48 -1.03,0.96 -1.55,1.44l-1.55 1.45 -1.55 1.44 -1.56 1.45 -1.55 1.44 -1.55 1.44 -1.56 1.45 -1.55 1.44 -1.55 1.45 -1.56 1.44 -1.55 1.44 -1.55 1.45 -1.56 1.44 -1.55 1.45 -0.36 0.27c-0.03,-0.31 -0.09,-0.63 -0.2,-0.96 -0.47,-1.43 -1.86,-2.8 -3.5,-4.08 -0.71,-0.56 -1.75,-0.33 -2.2,0.44 -2.41,4.17 -7.55,2.68 -11.01,0.46 4.78,-0.59 9.83,-2.05 12.43,-6.01 1.36,-2.06 1.36,-3.95 0.5,-6.17 -1.61,-4.18 -5.11,-6.95 -9.65,-7.94 -5.17,-1.14 -11.03,0.15 -16.32,2.96l-0.99 -1.01c-0.59,-3.54 19.18,-2.5 19.96,-8.77l7.07 0c0.93,0 1.65,-0.85 1.44,-1.81 -0.32,-1.5 -0.27,-3.24 -1.93,-3.19l-14.38 -0.01c-2.27,-0.86 -3.72,-1.95 -4.46,-3.08 -1.91,-2.95 1.47,-5.35 4.86,-6.01 2.54,-0.5 5.13,0.12 7.57,0.97 1.08,0.38 2.15,-0.57 1.93,-1.68l0 0c-0.26,-1.25 -0.99,-2.6 -1.97,-3.37 -4.2,-3.66 -13.12,-2.6 -17.7,0.9 -2.29,1.75 -3.54,3.95 -3.21,7.04 0.34,2.2 1.54,3.81 3.49,5.29l-19.1 0zm21.47 27.3c-2.64,-2.48 -5.26,-4.12 -8.11,-3.5 -4.1,0.87 -3.15,2.68 -0.22,3.26 2.83,0.55 5.86,0.37 8.33,0.24zm-4.14 -1.34l-4.54 -0.5c1.69,-0.52 2.92,-0.41 4.54,0.5zm-17.51 -24.49l20.39 0 4.64 0c-4.31,-1.8 -7.26,-3.95 -7.74,-6.75 -0.89,-5.16 5.05,-7.98 9.63,-8.6 4.74,-0.63 9.59,0.62 10.3,4.31 -2.77,-0.97 -5.55,-1.57 -8.33,-1.03 -7.87,1.54 -9.52,8.71 -0.38,12.01l14.73 0.01 0.4 2.05 -14.58 0 6.05 1.32c-0.65,4.02 -15.05,4.24 -18.46,6.43 -2.47,1.59 -1.82,4.33 1.08,5.11 10.82,-6.01 21.41,-4 24.47,3.91 0.68,1.76 0.74,3.16 -0.36,4.83 -2.52,3.84 -8.03,5.32 -15.02,5.65 5.03,4.83 12.68,7.24 16.12,1.43 2.72,2.14 4.65,4.39 1.44,6.05 -0.18,0.09 -0.38,0.18 -0.59,0.27 -6.3,2.64 -13.56,-1.2 -19.22,-7.93 -0.12,0.01 -0.24,0.01 -0.35,0.02 -5.6,0.2 -10.41,-0.37 -13.87,-2.27 -1.19,-0.65 -1.99,-1.58 -2.62,-2.73 -1.73,-3.18 0.68,-5.25 5.32,-5.26 3.23,0.19 7.08,3.29 11.11,7.21 4.28,0.09 7.6,-0.81 10.37,-2.26 0.78,-0.41 1.51,-0.86 2.2,-1.34 1.42,-1.32 2.14,-2.6 2.33,-3.75 0.43,-2.51 -1.64,-4.36 -4.19,-4.4 -1.41,-0.01 -2.77,0.08 -4.08,0.27 -2.78,0.4 -5.34,1.25 -7.68,2.6 -1.66,0.96 -4.04,0.32 -5.65,-0.35 -0.06,-0.02 -0.12,-0.05 -0.17,-0.07 -1.34,-0.57 -2.52,-1.27 -3.57,-2.09 -1.49,-1.17 -2.68,-2.59 -3.58,-4.27 -1.91,-3.19 4.21,-4.66 12.2,-6.11 0.28,-0.05 0.95,-0.14 1.74,-0.28 0.7,-0.13 1.5,-0.3 2.21,-0.5 1.24,-0.37 2.21,-0.86 1.95,-1.5l-4.49 0 -2.9 0 -20.28 0 -0.55 -1.93 -0.02 -0.06z"/>
   </g>
   <g>
    <path fill="#FFED00" d="M6.16 71.83l6.49 0 -0.58 1.88 -3.8 0 -0.32 1.06 3.2 0 -0.58 1.89 -3.2 0 -0.34 1.14 3.97 0 -0.57 1.88 -6.66 0 2.39 -7.85zm57.6 0l6.49 0 -0.57 1.88 -3.81 0 -0.32 1.06 3.2 0 -0.57 1.89 -3.2 0 -0.35 1.14 3.98 0 -0.58 1.88 -6.66 0 2.39 -7.85zm-8.92 -0.09l4.14 0c1.19,0.01 1.96,0.24 2.31,0.68 0.34,0.44 0.45,0.93 0.31,1.47 -0.01,0.01 -0.01,0.03 -0.02,0.05 0,0.01 -0.01,0.03 -0.01,0.04 -0.15,0.49 -0.42,0.93 -0.8,1.34 -0.39,0.41 -0.75,0.63 -1.08,0.66 0.48,0.25 0.73,0.55 0.75,0.9 0.01,0.34 -0.06,0.77 -0.21,1.28l-0.13 0.42c-0.08,0.26 -0.13,0.46 -0.14,0.59 -0.01,0.14 0.06,0.23 0.22,0.27l-0.08 0.24 -2.77 0c0.03,-0.25 0.08,-0.49 0.13,-0.72 0.06,-0.23 0.12,-0.44 0.17,-0.62 0.09,-0.33 0.15,-0.59 0.16,-0.79 0.02,-0.2 -0.07,-0.34 -0.28,-0.43 -0.08,-0.04 -0.18,-0.07 -0.29,-0.08 -0.12,-0.02 -0.25,-0.03 -0.38,-0.03 -0.07,0 -0.15,0.01 -0.22,0.01 -0.08,0 -0.15,0.01 -0.24,0.01 0,0 -0.01,0 -0.02,0 -0.01,0 -0.02,0 -0.03,0 -0.07,0 -0.14,0 -0.21,0 -0.07,0.01 -0.14,0.01 -0.21,0.01l-0.8 2.64 -2.69 0 2.42 -7.94zm2 1.97l-0.43 1.41 1.54 0c0.24,0.01 0.44,-0.06 0.61,-0.21 0.17,-0.14 0.28,-0.3 0.33,-0.47 0.01,-0.01 0.01,-0.02 0.01,-0.03 0.01,-0.01 0.01,-0.02 0.01,-0.03 0.04,-0.17 0.01,-0.32 -0.09,-0.45 -0.09,-0.14 -0.27,-0.2 -0.53,-0.2l-1.45 -0.02zm-8.83 -1.97l2.77 0 0.44 7.94 -2.69 0 0.06 -1.03 -2.6 0 -0.6 1.03 -2.66 0 5.28 -7.94zm-1.01 5.29l1.54 0 0.03 -2.6 -1.57 2.6zm-10.52 -5.29l2.6 0 -1.52 5c-0.12,0.39 -0.09,0.69 0.09,0.91 0.18,0.21 0.42,0.33 0.71,0.34 0.01,0 0.01,0 0.02,0 0,0 0.01,0 0.02,0 0.02,0 0.04,0 0.06,0 0.02,0 0.04,-0.01 0.06,-0.02 0.28,-0.02 0.57,-0.14 0.85,-0.35 0.29,-0.21 0.49,-0.5 0.61,-0.87l1.52 -5.01 2.69 0 -1.52 5c-0.32,1.05 -0.91,1.85 -1.77,2.39 -0.86,0.54 -1.9,0.81 -3.12,0.81 -1.22,0 -2.07,-0.28 -2.56,-0.83 -0.48,-0.56 -0.56,-1.4 -0.21,-2.53l1.47 -4.84zm-5.6 -0.26l0.15 0c1.35,0.01 2.28,0.44 2.78,1.28 0.5,0.84 0.58,1.8 0.25,2.87 -0.04,0.14 -0.08,0.26 -0.13,0.39 -0.05,0.13 -0.11,0.26 -0.16,0.39 -0.18,0.36 -0.4,0.72 -0.66,1.08 -0.26,0.35 -0.56,0.69 -0.9,1.01l0.68 0.93 -1.59 1.2 -0.78 -1.12c-0.22,0.09 -0.46,0.17 -0.7,0.22 -0.24,0.06 -0.49,0.11 -0.72,0.14 -0.13,0.02 -0.24,0.03 -0.36,0.04 -0.11,0 -0.22,0.01 -0.34,0.01 -0.97,0 -1.77,-0.32 -2.4,-0.94 -0.64,-0.63 -0.78,-1.66 -0.43,-3.09 0,-0.02 0.01,-0.04 0.02,-0.07 0,-0.02 0.01,-0.04 0,-0.06 0.01,-0.01 0.01,-0.02 0.01,-0.02 0,-0.01 0,-0.01 0,-0.01 0.01,-0.03 0.02,-0.06 0.02,-0.08 0,-0.03 0.01,-0.05 0.02,-0.08 0.35,-1.15 0.9,-2.04 1.65,-2.64 0.74,-0.61 1.49,-1.02 2.22,-1.23 0.25,-0.07 0.49,-0.12 0.73,-0.15 0.23,-0.04 0.44,-0.05 0.64,-0.05l0 -0.02zm-1.99 5.43l1.45 -1.12 0.62 0.87c0.06,-0.14 0.11,-0.28 0.16,-0.42 0.04,-0.14 0.09,-0.28 0.13,-0.41 0.22,-0.72 0.25,-1.28 0.1,-1.68 -0.15,-0.4 -0.46,-0.6 -0.94,-0.6 -0.53,0 -0.97,0.21 -1.3,0.62 -0.34,0.41 -0.59,0.87 -0.75,1.37 -0.01,0.01 -0.01,0.03 -0.02,0.04 0,0.02 -0.01,0.04 -0.01,0.05 -0.04,0.13 -0.08,0.28 -0.12,0.46 -0.04,0.18 -0.06,0.37 -0.07,0.55 -0.01,0.33 0.03,0.63 0.14,0.91 0.11,0.27 0.35,0.41 0.72,0.41 0.02,0 0.06,0 0.1,-0.01 0.04,-0.01 0.09,-0.02 0.13,-0.03 0.02,0 0.03,0 0.05,0 0.01,-0.01 0.02,-0.01 0.04,-0.01 0.02,0 0.04,0 0.06,0 0.02,-0.01 0.04,-0.01 0.06,-0.01l-0.55 -0.99zm-6.73 -2.85c0.03,-0.19 -0.03,-0.34 -0.18,-0.46 -0.15,-0.11 -0.32,-0.19 -0.52,-0.22 -0.05,-0.01 -0.09,-0.01 -0.13,-0.02 -0.04,0 -0.08,0 -0.13,0 -0.14,0 -0.29,0.02 -0.42,0.06 -0.14,0.05 -0.24,0.12 -0.3,0.22 0,0.01 -0.01,0.02 -0.01,0.02 0,0.01 -0.01,0.03 -0.02,0.04 0,0 0,0.01 -0.01,0.01 0,0.01 0,0.02 0,0.02 -0.01,0.01 -0.02,0.03 -0.03,0.04 -0.01,0.01 -0.01,0.02 -0.01,0.02 -0.07,0.2 0.04,0.37 0.31,0.5 0.26,0.12 0.58,0.22 0.93,0.3 0.02,0.01 0.03,0.01 0.05,0.02 0.01,0 0.03,0 0.04,0 0.86,0.18 1.5,0.45 1.92,0.83 0.42,0.37 0.53,0.94 0.35,1.68l-0.04 0.11c-0.26,0.87 -0.83,1.54 -1.71,2.01 -0.88,0.47 -1.76,0.7 -2.66,0.7 -0.95,0 -1.74,-0.21 -2.38,-0.63 -0.63,-0.41 -0.8,-1.12 -0.5,-2.1l2.51 -0.01c-0.01,0.29 0.06,0.5 0.22,0.63 0.16,0.12 0.34,0.2 0.55,0.23 0.05,0 0.09,0 0.13,0.01 0.05,0 0.09,0 0.13,0 0.24,0 0.45,-0.06 0.64,-0.18 0.19,-0.12 0.31,-0.25 0.37,-0.38 0,-0.01 0,-0.02 0,-0.02 0.01,-0.01 0.01,-0.01 0.01,-0.02 0.01,-0.03 0.01,-0.05 0.02,-0.08 0,-0.02 0,-0.04 0,-0.06 0,-0.08 -0.03,-0.16 -0.09,-0.23 -0.05,-0.07 -0.14,-0.13 -0.26,-0.17 -0.06,-0.02 -0.12,-0.04 -0.18,-0.05 -0.06,-0.02 -0.12,-0.04 -0.18,-0.05 -0.05,-0.02 -0.11,-0.03 -0.16,-0.05 -0.05,-0.01 -0.11,-0.02 -0.17,-0.04 -0.75,-0.2 -1.42,-0.48 -2,-0.82 -0.58,-0.34 -0.74,-0.94 -0.48,-1.8 0.01,-0.04 0.03,-0.08 0.05,-0.13 0.01,-0.04 0.03,-0.09 0.05,-0.13 0.02,-0.04 0.03,-0.08 0.05,-0.12 0.01,-0.03 0.03,-0.07 0.05,-0.1 0.24,-0.57 0.69,-1.06 1.33,-1.5 0.65,-0.43 1.44,-0.64 2.38,-0.64l0.32 -0.02c0.04,0.01 0.09,0.02 0.15,0.02 0.05,0 0.1,0 0.15,0.01 0.72,0.03 1.33,0.23 1.85,0.58 0.52,0.35 0.69,1.01 0.52,1.98l-2.51 -0.01zm-9.34 1.73l3.04 0 -0.64 2.1 -3.04 0 0.64 -2.1z"/>
    <path fill="#2B2A29" d="M12.78 74.66l1.15 -3.78 -8.48 0 -2.96 9.75 8.64 0 0.55 -1.79 4.04 0c0.84,2.82 7.04,2.8 8.84,-0.56 0.13,0.5 0.37,0.97 0.77,1.37 1.36,1.35 3.11,1.4 4.81,0.98l0.95 1.36 3.11 -2.37 -0.75 -1.03c0.14,-0.17 0.28,-0.33 0.4,-0.51 0.23,3.41 5.21,3.35 7.6,1.83l-0.49 0.72 4.98 0 0.6 -1.03 1.05 0 -0.06 1.03 8.28 0 0.81 -2.66 0.13 -0.01 -0.48 2.67 12.47 0 1.15 -3.78 -0.78 0 0.67 -2.19 0.6 0 1.15 -3.78 -8.47 0 -0.56 1.84c-0.48,-1.6 -2.01,-1.93 -3.52,-1.93l-4.84 0 -2.08 6.84 -0.38 -6.84 -4.18 0 -3.75 5.65 1.72 -5.65 -4.67 0 -1.73 5.69 -0.61 0.54 1.9 -6.23 -4.58 0 -0.74 2.43c-0.75,-2.52 -2.79,-2.68 -4.86,-2.68l-0.02 0.06c-1.74,0.24 -3.5,1.28 -4.48,2.68 -0.11,-3.24 -4.96,-3.23 -6.91,-1.92 -1.12,0.75 -2.07,2.07 -2.07,3.48l-4.58 0 0.05 -0.18 0.61 0zm44.06 -0.95l-0.43 1.41c1.11,0 2.25,0.25 2.5,-0.74 0.23,-0.88 -1.22,-0.66 -2.07,-0.67zm-8.27 0.72l-1.57 2.6 1.54 0 0.03 -2.6zm-18.12 0.07l-0.92 0.71c0.23,-0.4 0.46,-0.73 0.92,-0.71zm-1.34 -0.33c-1.2,1.45 -1.38,4.04 -0.01,3.78l0.34 -0.05 -0.55 -0.99 1.45 -1.12 0.62 0.87c1.54,-3.65 -1.01,-3.52 -1.85,-2.49zm-22.95 -2.34l6.49 0 -0.58 1.88 -3.8 0 -0.32 1.06 3.2 0 -0.58 1.89 -3.2 0 -0.34 1.14 3.97 0 -0.57 1.88 -6.66 0 2.39 -7.85zm11.81 1.81c0.77,-1.56 2.51,-2.33 4.33,-2.13 1.58,0.18 2.71,0.6 2.37,2.56l-2.51 -0.01c0.12,-0.7 -1.36,-1 -1.72,-0.33 -0.67,1.25 4.49,0.34 3.52,3.5 -0.78,2.57 -4.72,3.42 -6.75,2.08 -0.63,-0.41 -0.8,-1.12 -0.5,-2.1l2.51 -0.01c-0.08,1.53 2.62,0.74 1.98,-0.1 -0.19,-0.26 -1.72,-0.45 -2.95,-1.18 -0.81,-0.47 -0.69,-1.46 -0.28,-2.28zm9.32 -0.71c1.09,-0.89 2.28,-1.43 3.59,-1.43l0 -0.01c1.4,0 2.38,0.35 2.93,1.27 1.15,1.94 -0.11,4.35 -1.6,5.74l0.68 0.93 -1.59 1.2 -0.78 -1.12c-2.69,1.08 -6.08,0.01 -4.93,-3.69 0.39,-1.26 0.72,-2.1 1.7,-2.89zm20.72 -1.19l2.77 0 0.44 7.94 -2.69 0 0.06 -1.03 -2.6 0 -0.6 1.03 -2.66 0 5.28 -7.94zm4.41 7.94l2.42 -7.94 4.14 0c1.19,0.01 1.96,0.24 2.31,0.68 1.13,1.46 -0.72,3.47 -1.6,3.56 1.47,0.77 0.38,2.03 0.27,3.19 -0.01,0.14 0.06,0.23 0.22,0.27l-0.08 0.24 -2.77 0c0.23,-2.03 1.42,-2.8 -1.21,-2.65 -0.07,0.01 -0.14,0.01 -0.21,0.01l-0.8 2.64 -2.69 0zm11.34 -7.85l6.49 0 -0.57 1.88 -3.81 0 -0.32 1.06 3.2 0 -0.57 1.89 -3.2 0 -0.35 1.14 3.98 0 -0.58 1.88 -6.66 0 2.39 -7.85zm-50.94 3.96l3.04 0 -0.64 2.1 -3.04 0 0.64 -2.1zm3.89 0.47l0.16 -0.52c0.08,0.18 0.18,0.36 0.32,0.52l-0.48 0zm18.3 0.32l1.47 -4.84 2.6 0 -1.52 5c-0.51,1.65 1.92,1.66 2.42,0.01l1.52 -5.01 2.69 0 -1.52 5c-1.17,3.82 -6.26,3.72 -7.45,2.37 -0.48,-0.56 -0.55,-1.4 -0.21,-2.53zm26.33 -0.06c-0.02,-0.11 -0.06,-0.22 -0.11,-0.32l0.31 -0.31 -0.2 0.63zm-36.61 -1.24c-0.05,-0.09 -0.11,-0.17 -0.18,-0.26l0.27 0c-0.03,0.09 -0.06,0.18 -0.09,0.26z"/>
   </g>
  </g>
 </g>
</svg>
